<mxfile host="Electron" agent="Mozilla/5.0 (Windows NT 10.0; Win64; x64) AppleWebKit/537.36 (KHTML, like Gecko) draw.io/26.2.2 Chrome/134.0.6998.178 Electron/35.1.2 Safari/537.36" version="26.2.2">
  <diagram name="Pagina-1" id="GlpkhPhDOdlEphW2h4q4">
    <mxGraphModel dx="680" dy="400" grid="1" gridSize="10" guides="1" tooltips="1" connect="1" arrows="1" fold="1" page="1" pageScale="1" pageWidth="827" pageHeight="1169" math="1" shadow="0">
      <root>
        <mxCell id="0" />
        <mxCell id="1" parent="0" />
        <mxCell id="WjY2UtVjy9ihCppoyxXz-4" value="" style="endArrow=none;html=1;rounded=0;edgeStyle=orthogonalEdgeStyle;curved=1;" parent="1" edge="1">
          <mxGeometry width="50" height="50" relative="1" as="geometry">
            <mxPoint x="370" y="260" as="sourcePoint" />
            <mxPoint x="250" y="350" as="targetPoint" />
          </mxGeometry>
        </mxCell>
        <mxCell id="WjY2UtVjy9ihCppoyxXz-5" value="" style="endArrow=none;html=1;rounded=0;edgeStyle=orthogonalEdgeStyle;curved=1;fillColor=#66B2FF;" parent="1" edge="1">
          <mxGeometry width="50" height="50" relative="1" as="geometry">
            <mxPoint x="370" y="250" as="sourcePoint" />
            <mxPoint x="240" y="350" as="targetPoint" />
          </mxGeometry>
        </mxCell>
        <mxCell id="WjY2UtVjy9ihCppoyxXz-6" value="" style="ellipse;whiteSpace=wrap;html=1;rotation=60;fillColor=#3399FF;" parent="1" vertex="1">
          <mxGeometry x="289" y="266" width="10" height="5" as="geometry" />
        </mxCell>
        <mxCell id="WjY2UtVjy9ihCppoyxXz-7" value="" style="ellipse;whiteSpace=wrap;html=1;rotation=60;fillColor=#3399FF;" parent="1" vertex="1">
          <mxGeometry x="274" y="275" width="10" height="5" as="geometry" />
        </mxCell>
        <mxCell id="WjY2UtVjy9ihCppoyxXz-12" value="" style="endArrow=none;html=1;rounded=0;" parent="1" edge="1">
          <mxGeometry width="50" height="50" relative="1" as="geometry">
            <mxPoint x="274" y="271" as="sourcePoint" />
            <mxPoint x="290" y="262" as="targetPoint" />
          </mxGeometry>
        </mxCell>
        <mxCell id="WjY2UtVjy9ihCppoyxXz-13" value="$$\mathrm{d}\ell$$" style="text;html=1;align=center;verticalAlign=middle;resizable=0;points=[];autosize=1;strokeColor=none;fillColor=none;rotation=-30;" parent="1" vertex="1">
          <mxGeometry x="218" y="245" width="120" height="30" as="geometry" />
        </mxCell>
        <mxCell id="WjY2UtVjy9ihCppoyxXz-14" value="" style="endArrow=classic;html=1;rounded=0;edgeStyle=orthogonalEdgeStyle;curved=1;strokeColor=#007FFF;" parent="1" edge="1">
          <mxGeometry width="50" height="50" relative="1" as="geometry">
            <mxPoint x="299" y="265.9999999999999" as="sourcePoint" />
            <mxPoint x="349" y="315.9999999999999" as="targetPoint" />
          </mxGeometry>
        </mxCell>
        <mxCell id="WjY2UtVjy9ihCppoyxXz-15" value="$$\Sigma$$" style="text;html=1;align=center;verticalAlign=middle;resizable=0;points=[];autosize=1;strokeColor=none;fillColor=none;fontColor=#007FFF;" parent="1" vertex="1">
          <mxGeometry x="304" y="310" width="90" height="30" as="geometry" />
        </mxCell>
      </root>
    </mxGraphModel>
  </diagram>
</mxfile>
